name rise36.2859peak64.2979fall75.1499.mot
datacolumns 19
datarows 33
range 21.90158700000000 21.95491600000000
endheader
time	ground_force1_vx	ground_force1_vy	ground_force1_vz	ground_force1_px	ground_force1_py	ground_force1_pz	ground_force2_vx	ground_force2_vy	ground_force2_vz	ground_force2_px	ground_force2_py	ground_force2_pz	ground_torque1_x	ground_torque1_y	ground_torque1_z	ground_torque2_x	ground_torque2_y	ground_torque2_z	
21.90158700000000	8.12646300000000	733.82371400000000	53.05305700000000	0.28068200000000	0.00000000000000	0.11116300000000	0.00000000000000	0.00000000000000	0.00000000000000	0.00000000000000	0.00000000000000	0.00000000000000	0.00000000000000	28.30581000000000	0.00000000000000	0.00000000000000	0.00000000000000	0.00000000000000	
21.90324700000000	7.69259000000000	734.26214200000004	53.02919500000000	0.27970000000000	0.00000000000000	0.11105900000000	0.00000000000000	0.00000000000000	0.00000000000000	0.00000000000000	0.00000000000000	0.00000000000000	0.00000000000000	28.30653400000000	0.00000000000000	0.00000000000000	0.00000000000000	0.00000000000000	
21.90491900000000	7.24940700000000	734.69626900000003	53.00502800000000	0.27870600000000	0.00000000000000	0.11095600000000	0.00000000000000	0.00000000000000	0.00000000000000	0.00000000000000	0.00000000000000	0.00000000000000	0.00000000000000	28.30936300000000	0.00000000000000	0.00000000000000	0.00000000000000	0.00000000000000	
21.90658600000000	6.79684700000000	735.12598100000002	52.98044300000000	0.27769900000000	0.00000000000000	0.11085200000000	0.00000000000000	0.00000000000000	0.00000000000000	0.00000000000000	0.00000000000000	0.00000000000000	0.00000000000000	28.31428300000000	0.00000000000000	0.00000000000000	0.00000000000000	0.00000000000000	
21.90825300000000	6.33485800000000	735.55125199999998	52.95534100000000	0.27668200000000	0.00000000000000	0.11074700000000	0.00000000000000	0.00000000000000	0.00000000000000	0.00000000000000	0.00000000000000	0.00000000000000	0.00000000000000	28.32128100000000	0.00000000000000	0.00000000000000	0.00000000000000	0.00000000000000	
21.90991900000000	5.86340300000000	735.97214799999995	52.92963400000000	0.27565300000000	0.00000000000000	0.11064300000000	0.00000000000000	0.00000000000000	0.00000000000000	0.00000000000000	0.00000000000000	0.00000000000000	0.00000000000000	28.33034700000000	0.00000000000000	0.00000000000000	0.00000000000000	0.00000000000000	
21.91158700000000	5.38246800000000	736.38881800000001	52.90324400000000	0.27461200000000	0.00000000000000	0.11053900000000	0.00000000000000	0.00000000000000	0.00000000000000	0.00000000000000	0.00000000000000	0.00000000000000	0.00000000000000	28.34147400000000	0.00000000000000	0.00000000000000	0.00000000000000	0.00000000000000	
21.91324800000000	4.89205400000000	736.80149800000004	52.87610900000000	0.27356100000000	0.00000000000000	0.11043500000000	0.00000000000000	0.00000000000000	0.00000000000000	0.00000000000000	0.00000000000000	0.00000000000000	0.00000000000000	28.35465500000000	0.00000000000000	0.00000000000000	0.00000000000000	0.00000000000000	
21.91491300000000	4.39218100000000	737.21050200000002	52.84817700000000	0.27249900000000	0.00000000000000	0.11033100000000	0.00000000000000	0.00000000000000	0.00000000000000	0.00000000000000	0.00000000000000	0.00000000000000	0.00000000000000	28.36988700000000	0.00000000000000	0.00000000000000	0.00000000000000	0.00000000000000	
21.91658800000000	3.88289100000000	737.61622699999998	52.81940700000000	0.27142600000000	0.00000000000000	0.11022700000000	0.00000000000000	0.00000000000000	0.00000000000000	0.00000000000000	0.00000000000000	0.00000000000000	0.00000000000000	28.38716500000000	0.00000000000000	0.00000000000000	0.00000000000000	0.00000000000000	
21.91825100000000	3.36424300000000	738.01914099999999	52.78977500000000	0.27034200000000	0.00000000000000	0.11012300000000	0.00000000000000	0.00000000000000	0.00000000000000	0.00000000000000	0.00000000000000	0.00000000000000	0.00000000000000	28.40648800000000	0.00000000000000	0.00000000000000	0.00000000000000	0.00000000000000	
21.91991300000000	2.83632000000000	738.41978700000004	52.75926400000000	0.26924900000000	0.00000000000000	0.11001900000000	0.00000000000000	0.00000000000000	0.00000000000000	0.00000000000000	0.00000000000000	0.00000000000000	0.00000000000000	28.42785400000000	0.00000000000000	0.00000000000000	0.00000000000000	0.00000000000000	
21.92158300000000	2.29922300000000	738.81877499999996	52.72787100000000	0.26814600000000	0.00000000000000	0.10991600000000	0.00000000000000	0.00000000000000	0.00000000000000	0.00000000000000	0.00000000000000	0.00000000000000	0.00000000000000	28.45126100000000	0.00000000000000	0.00000000000000	0.00000000000000	0.00000000000000	
21.92325100000000	1.75307500000000	739.21677899999997	52.69560800000000	0.26703300000000	0.00000000000000	0.10981300000000	0.00000000000000	0.00000000000000	0.00000000000000	0.00000000000000	0.00000000000000	0.00000000000000	0.00000000000000	28.47670700000000	0.00000000000000	0.00000000000000	0.00000000000000	0.00000000000000	
21.92491600000000	1.19802200000000	739.61453100000006	52.66249300000000	0.26591100000000	0.00000000000000	0.10971000000000	0.00000000000000	0.00000000000000	0.00000000000000	0.00000000000000	0.00000000000000	0.00000000000000	0.00000000000000	28.50418900000000	0.00000000000000	0.00000000000000	0.00000000000000	0.00000000000000	
21.92658100000000	0.63423000000000	740.01282000000003	52.62856000000000	0.26478000000000	0.00000000000000	0.10960800000000	0.00000000000000	0.00000000000000	0.00000000000000	0.00000000000000	0.00000000000000	0.00000000000000	0.00000000000000	28.53370300000000	0.00000000000000	0.00000000000000	0.00000000000000	0.00000000000000	
21.92825500000000	0.06188900000000	740.41248399999995	52.59385200000000	0.26364100000000	0.00000000000000	0.10950600000000	0.00000000000000	0.00000000000000	0.00000000000000	0.00000000000000	0.00000000000000	0.00000000000000	0.00000000000000	28.56524400000000	0.00000000000000	0.00000000000000	0.00000000000000	0.00000000000000	
21.92991700000000	-0.51879100000000	740.81440599999996	52.55842200000000	0.26249300000000	0.00000000000000	0.10940400000000	0.00000000000000	0.00000000000000	0.00000000000000	0.00000000000000	0.00000000000000	0.00000000000000	0.00000000000000	28.59880300000000	0.00000000000000	0.00000000000000	0.00000000000000	0.00000000000000	
21.93158700000000	-1.10757500000000	741.21951000000001	52.52233400000000	0.26133700000000	0.00000000000000	0.10930300000000	0.00000000000000	0.00000000000000	0.00000000000000	0.00000000000000	0.00000000000000	0.00000000000000	0.00000000000000	28.63437000000000	0.00000000000000	0.00000000000000	0.00000000000000	0.00000000000000	
21.93324600000000	-1.70420700000000	741.62875299999996	52.48566100000000	0.26017400000000	0.00000000000000	0.10920300000000	0.00000000000000	0.00000000000000	0.00000000000000	0.00000000000000	0.00000000000000	0.00000000000000	0.00000000000000	28.67193400000000	0.00000000000000	0.00000000000000	0.00000000000000	0.00000000000000	
21.93491500000000	-2.30840900000000	742.04312300000004	52.44848500000000	0.25900400000000	0.00000000000000	0.10910300000000	0.00000000000000	0.00000000000000	0.00000000000000	0.00000000000000	0.00000000000000	0.00000000000000	0.00000000000000	28.71147700000000	0.00000000000000	0.00000000000000	0.00000000000000	0.00000000000000	
21.93658600000000	-2.91987900000000	742.46362799999997	52.41089800000000	0.25782800000000	0.00000000000000	0.10900400000000	0.00000000000000	0.00000000000000	0.00000000000000	0.00000000000000	0.00000000000000	0.00000000000000	0.00000000000000	28.75298100000000	0.00000000000000	0.00000000000000	0.00000000000000	0.00000000000000	
21.93825000000000	-3.53829300000000	742.89129700000001	52.37299700000000	0.25664500000000	0.00000000000000	0.10890500000000	0.00000000000000	0.00000000000000	0.00000000000000	0.00000000000000	0.00000000000000	0.00000000000000	0.00000000000000	28.79642100000000	0.00000000000000	0.00000000000000	0.00000000000000	0.00000000000000	
21.93991500000000	-4.16330400000000	743.32716900000003	52.33488800000000	0.25545700000000	0.00000000000000	0.10880800000000	0.00000000000000	0.00000000000000	0.00000000000000	0.00000000000000	0.00000000000000	0.00000000000000	0.00000000000000	28.84177000000000	0.00000000000000	0.00000000000000	0.00000000000000	0.00000000000000	
21.94158600000000	-4.79454500000000	743.77229000000000	52.29668300000000	0.25426300000000	0.00000000000000	0.10871000000000	0.00000000000000	0.00000000000000	0.00000000000000	0.00000000000000	0.00000000000000	0.00000000000000	0.00000000000000	28.88899500000000	0.00000000000000	0.00000000000000	0.00000000000000	0.00000000000000	
21.94325200000000	-5.43162600000000	744.22770500000001	52.25850100000000	0.25306500000000	0.00000000000000	0.10861400000000	0.00000000000000	0.00000000000000	0.00000000000000	0.00000000000000	0.00000000000000	0.00000000000000	0.00000000000000	28.93805800000000	0.00000000000000	0.00000000000000	0.00000000000000	0.00000000000000	
21.94491400000000	-6.07413400000000	744.69445299999995	52.22046300000000	0.25186300000000	0.00000000000000	0.10851800000000	0.00000000000000	0.00000000000000	0.00000000000000	0.00000000000000	0.00000000000000	0.00000000000000	0.00000000000000	28.98891700000000	0.00000000000000	0.00000000000000	0.00000000000000	0.00000000000000	
21.94658600000000	-6.72163700000000	745.17356199999995	52.18269700000000	0.25065800000000	0.00000000000000	0.10842300000000	0.00000000000000	0.00000000000000	0.00000000000000	0.00000000000000	0.00000000000000	0.00000000000000	0.00000000000000	29.04152200000000	0.00000000000000	0.00000000000000	0.00000000000000	0.00000000000000	
21.94825300000000	-7.37368300000000	745.66604199999995	52.14533400000000	0.24945000000000	0.00000000000000	0.10832900000000	0.00000000000000	0.00000000000000	0.00000000000000	0.00000000000000	0.00000000000000	0.00000000000000	0.00000000000000	29.09582000000000	0.00000000000000	0.00000000000000	0.00000000000000	0.00000000000000	
21.94992100000000	-8.02979900000000	746.17287999999996	52.10850700000000	0.24824000000000	0.00000000000000	0.10823500000000	0.00000000000000	0.00000000000000	0.00000000000000	0.00000000000000	0.00000000000000	0.00000000000000	0.00000000000000	29.15174900000000	0.00000000000000	0.00000000000000	0.00000000000000	0.00000000000000	
21.95158100000000	-8.68949200000000	746.69503299999997	52.07235100000000	0.24702800000000	0.00000000000000	0.10814300000000	0.00000000000000	0.00000000000000	0.00000000000000	0.00000000000000	0.00000000000000	0.00000000000000	0.00000000000000	29.20924300000000	0.00000000000000	0.00000000000000	0.00000000000000	0.00000000000000	
21.95325000000000	-9.35225300000000	747.23342300000002	52.03700400000000	0.24581500000000	0.00000000000000	0.10805100000000	0.00000000000000	0.00000000000000	0.00000000000000	0.00000000000000	0.00000000000000	0.00000000000000	0.00000000000000	29.26823000000000	0.00000000000000	0.00000000000000	0.00000000000000	0.00000000000000	
21.95491600000000	-10.01755300000000	747.78893200000005	52.00260200000000	0.24460300000000	0.00000000000000	0.10796000000000	0.00000000000000	0.00000000000000	0.00000000000000	0.00000000000000	0.00000000000000	0.00000000000000	0.00000000000000	29.32862800000000	0.00000000000000	0.00000000000000	0.00000000000000	0.00000000000000	
